Coordinates
version=1
nRows=16
nColumns=40
inDegrees=yes

Units are S.I. units (second, meters, Newtons, ...)
Angles are in degrees.

endheader
time	pelvis_tilt	pelvis_list	pelvis_rotation	pelvis_tx	pelvis_ty	pelvis_tz	hip_flexion_r	hip_adduction_r	hip_rotation_r	knee_angle_r	knee_angle_r_beta	ankle_angle_r	subtalar_angle_r	mtp_angle_r	hip_flexion_l	hip_adduction_l	hip_rotation_l	knee_angle_l	knee_angle_l_beta	ankle_angle_l	subtalar_angle_l	mtp_angle_l	lumbar_extension	lumbar_bending	lumbar_rotation	arm_flex_r	arm_add_r	arm_rot_r	elbow_flex_r	pro_sup_r	wrist_flex_r	wrist_dev_r	arm_flex_l	arm_add_l	arm_rot_l	elbow_flex_l	pro_sup_l	wrist_flex_l	wrist_dev_l
      3.99250000	     -4.60338697	     -3.00111837	      4.48221328	      0.82516391	      0.91991796	      0.42896738	      5.28534741	     -2.61231765	    -13.84529393	     33.78530431	     33.78530431	     14.35712951	     -7.92599041	    -12.09865613	     26.65299621	     -2.43210978	     -3.30369284	     23.82451569	     23.82451569	      4.83042346	    -15.21950712	      2.35256984	     -6.98169660	      2.36751263	      3.97499104	     47.38625627	    -14.74135930	     -1.91150383	     93.08704848	     45.14877170	      0.00000000	      0.00000000	     11.12187586	    -10.58930504	     15.65226305	     57.48435875	     45.94022694	      0.00000000	      0.00000000
      4.00457143	     -4.33967209	     -2.72520601	      4.23696046	      0.82570340	      0.92140411	      0.42647961	      6.55865041	     -3.63726615	    -13.55612558	     37.44433316	     37.44433316	     12.80016015	     -8.90829741	    -12.54205751	     25.67141928	     -2.12069180	     -3.60683238	     23.72774391	     23.72774391	      5.40728942	    -15.22166684	      2.13749494	     -7.24301159	      2.16591183	      3.95308751	     45.13254866	    -14.63147498	     -1.53647275	     92.03673881	     45.16127773	      0.00000000	      0.00000000	     12.25110313	    -10.35391990	     15.51149649	     58.14422548	     45.97295390	      0.00000000	      0.00000000
      4.01664286	     -4.17653000	     -2.51741047	      4.01149705	      0.82605364	      0.92267261	      0.42403242	      8.05765585	     -4.56530128	    -13.17954860	     41.14556563	     41.14556563	     10.91821492	    -10.10470669	    -12.89443317	     24.75955498	     -1.83004518	     -3.79368713	     23.50606288	     23.50606288	      5.91411708	    -15.27713378	      1.99400983	     -7.37943470	      2.03060250	      3.93671092	     42.87788866	    -14.55872954	     -1.29586404	     90.64545100	     45.18880616	      0.00000000	      0.00000000	     13.42696392	    -10.12025593	     15.45598662	     59.08728525	     46.00261755	      0.00000000	      0.00000000
      4.02871429	     -4.02376530	     -2.36026391	      3.79061873	      0.82620874	      0.92379854	      0.42168607	      9.67030378	     -5.40250212	    -12.75059783	     44.84398226	     44.84398226	      8.75191287	    -11.45262951	    -13.05268858	     23.88106746	     -1.58694180	     -3.96263969	     23.27483725	     23.27483725	      6.34599490	    -15.35358484	      1.88248666	     -7.46736700	      1.95661285	      3.94037434	     40.62869512	    -14.49766190	     -1.13029653	     88.95467438	     45.22816917	      0.00000000	      0.00000000	     14.61652224	     -9.95489331	     15.46530656	     60.28207463	     46.03078209	      0.00000000	      0.00000000
      4.04078571	     -3.93207855	     -2.39050599	      3.60654110	      0.82623950	      0.92472411	      0.41957699	     11.36672148	     -5.85482143	    -12.13373776	     48.30566155	     48.30566155	      6.27510528	    -13.36174189	    -13.14308650	     23.13556440	     -1.51700263	     -3.95981195	     23.09823558	     23.09823558	      6.75489616	    -15.55458116	      1.74601524	     -7.46865617	      2.08478166	      3.89040809	     38.76176761	    -14.28996148	     -1.24142201	     85.84613224	     45.32246049	      0.00000000	      0.00000000	     15.51810487	    -10.15502267	     15.97423571	     62.72261859	     46.04530343	      0.00000000	      0.00000000
      4.05285714	     -3.81871854	     -2.35215232	      3.42345000	      0.82619086	      0.92554422	      0.41752991	     13.08049441	     -6.45315725	    -11.68968681	     51.73740107	     51.73740107	      4.12721247	    -14.50778991	    -12.49023397	     22.38002528	     -1.40864705	     -4.09351025	     22.95338529	     22.95338529	      7.17525775	    -15.51909931	      1.53243459	     -7.53049068	      2.14794696	      3.72172501	     36.76512833	    -13.99397714	     -1.01237516	     83.39933459	     45.38322484	      0.00000000	      0.00000000	     16.64857223	    -10.30194075	     16.13182000	     64.71830021	     46.08324431	      0.00000000	      0.00000000
      4.06492857	     -3.66305619	     -2.37528616	      3.23915743	      0.82613235	      0.92625753	      0.41574366	     14.78016416	     -6.89279120	    -11.20496403	     55.06551696	     55.06551696	      2.73349054	    -15.11004204	     -9.90275407	     21.65352622	     -1.40226435	     -4.25693574	     22.93758939	     22.93758939	      7.60906959	    -15.44783495	      1.17880348	     -7.61697767	      2.29712355	      3.03391121	     35.40720241	    -13.07259125	     -0.60010854	     79.58601026	     45.47736457	      0.00000000	      0.00000000	     17.33958861	    -11.13229970	     16.42165330	     67.87792629	     46.15552919	      0.00000000	      0.00000000
      4.07700000	     -3.61411810	     -2.45226060	      3.02663540	      0.82593288	      0.92674059	      0.41417236	     16.63855207	     -7.16613928	    -10.61582561	     58.23020095	     58.23020095	      1.94322120	    -15.36379741	     -6.32725382	     21.06396678	     -1.45520191	     -4.39495044	     22.92425609	     22.92425609	      8.01680468	    -15.44871590	      0.90041214	     -7.61010240	      2.49800800	      2.70271298	     33.75127196	    -12.79253419	      0.08826244	     76.36522466	     45.52803351	      0.00000000	      0.00000000	     18.35384726	    -11.25358653	     15.71017534	     70.34257446	     46.34130947	      0.00000000	      0.00000000
      4.08907143	     -3.56571265	     -2.62539327	      2.78314598	      0.82569633	      0.92719751	      0.41294439	     18.34833067	     -7.20671304	    -10.03648868	     60.82978161	     60.82978161	      0.57375794	    -16.04063431	     -5.18601357	     20.52774276	     -1.64487050	     -4.53398730	     23.00459961	     23.00459961	      8.48359633	    -15.39358008	      0.65798960	     -7.62629953	      2.78584419	      3.06374194	     31.56254637	    -13.00442671	      0.11669499	     73.86510283	     45.59394735	      0.00000000	      0.00000000	     19.96583196	    -11.07847715	     15.67221321	     72.33688960	     46.40567810	      0.00000000	      0.00000000
      4.10114286	     -3.60816528	     -2.68425820	      2.49789593	      0.82540202	      0.92746678	      0.41192375	     20.14341991	     -7.28363176	     -9.37485053	     63.17259549	     63.17259549	     -0.50877568	    -16.54134430	     -4.43539880	     20.04903799	     -1.72783081	     -4.75263080	     23.01946050	     23.01946050	      8.91156376	    -15.35360712	      0.45925358	     -7.54463968	      2.94447526	      3.36929618	     29.35204235	    -13.10017085	      0.23295652	     71.68746158	     45.64910257	      0.00000000	      0.00000000	     21.60980193	    -10.98019303	     15.51005685	     74.10103073	     46.46501875	      0.00000000	      0.00000000
      4.11321429	     -3.59021318	     -2.94967394	      2.20222419	      0.82507499	      0.92787304	      0.41121655	     21.78180697	     -7.01593646	     -8.79180065	     65.11410287	     65.11410287	     -0.96871451	    -16.69031698	     -2.94296026	     19.57343475	     -2.07524387	     -5.00834644	     23.14211042	     23.14211042	      9.39023749	    -15.22348413	      0.20782514	     -7.53202019	      3.32183772	      3.74473309	     27.58151281	    -13.10539535	      0.07679787	     68.03275559	     45.76090851	      0.00000000	      0.00000000	     23.17875462	    -11.06841891	     15.70027835	     76.91916122	     46.52771029	      0.00000000	      0.00000000
      4.12528571	     -3.57331150	     -3.12063374	      1.93005091	      0.82465907	      0.92827281	      0.41077036	     23.41123629	     -6.74589087	     -8.17048566	     66.82797084	     66.82797084	     -0.58849445	    -16.43463034	     -0.34297729	     19.05179427	     -2.31797769	     -5.18247957	     23.18091779	     23.18091779	      9.88032176	    -15.04336355	      0.02626026	     -7.52124549	      3.57469902	      3.07041182	     26.95839797	    -11.94791882	     -0.00354612	     62.64224671	     45.91234586	      0.00000000	      0.00000000	     24.18197134	    -12.12912194	     15.55172113	     80.32703514	     46.66118744	      0.00000000	      0.00000000
      4.13735714	     -3.58770295	     -3.24920938	      1.60246401	      0.82416393	      0.92869662	      0.41038788	     24.93049563	     -6.47310105	     -7.56920355	     67.99536283	     67.99536283	     -0.79267171	    -16.49105284	     -0.30963177	     18.50453082	     -2.49686962	     -5.37534398	     23.10522145	     23.10522145	     10.27783605	    -15.03795384	     -0.05995245	     -7.53715768	      3.84172496	      3.51201920	     24.83488451	    -12.14081374	      0.17076964	     60.81810786	     45.95315676	      0.00000000	      0.00000000	     26.12258034	    -11.95363885	     15.03951061	     81.99830617	     46.74191532	      0.00000000	      0.00000000
      4.14942857	     -3.58040236	     -3.45249869	      1.25510077	      0.82357841	      0.92924164	      0.41029456	     26.32333181	     -6.03970290	     -7.04267216	     68.72246002	     68.72246002	     -0.65120687	    -16.41794151	     -0.05920314	     17.92352197	     -2.78876164	     -5.62003007	     23.00708602	     23.00708602	     10.73503874	    -14.92190024	     -0.13429634	     -7.65832458	      4.06927616	      4.08360372	     23.37068827	    -12.25714918	      0.01431801	     56.91711374	     46.07350491	      0.00000000	      0.00000000	     27.81724106	    -11.87171508	     14.97663574	     84.86952157	     46.82994708	      0.00000000	      0.00000000
      4.16150000	     -3.59301427	     -3.53293506	      0.94259566	      0.82286262	      0.92978163	      0.41017780	     27.67577347	     -5.74317186	     -6.57168671	     69.10587436	     69.10587436	     -0.31817291	    -16.28986158	      0.38842384	     17.33456214	     -2.92536763	     -5.87664246	     22.83554883	     22.83554883	     11.12640392	    -14.79286995	     -0.04077112	     -7.66274812	      4.21429115	      3.39514242	     23.41487625	    -11.08045510	     -0.43258446	     50.63610515	     46.26658555	      0.00000000	      0.00000000	     28.96186235	    -12.88195621	     14.36369806	     88.14801357	     47.00731076	      0.00000000	      0.00000000
      4.17357143	     -3.55242977	     -3.63173704	      0.62696289	      0.82214991	      0.93041206	      0.41013491	     28.82123089	     -5.41143279	     -6.18966656	     68.99606856	     68.99606856	      0.00040176	    -16.18007230	      0.40423696	     16.64514451	     -3.07091084	     -6.09461180	     22.59114390	     22.59114390	     11.50297669	    -14.70607968	      0.03061196	     -7.82452634	      4.37333132	      3.43360669	     22.56075721	    -10.79682753	     -0.62666411	     46.53314962	     46.36702199	      0.00000000	      0.00000000	     30.55906367	    -13.08061946	     13.65054958	     90.79119101	     47.18072805	      0.00000000	      0.00000000
